<?xml version="1.0" encoding="UTF-8"?>
<svg xmlns="http://www.w3.org/2000/svg" width="240" height="240" viewBox="0 0 240 240">
  <defs>
    <style> .t{font-family: 'Segoe UI', Roboto, Arial, sans-serif; font-weight:700; fill:#3b2c66 } .s{fill:#c59a2f} .d{fill:#24183a} .r{fill:#f8fafc} </style>
  </defs>
  <circle cx="120" cy="120" r="114" fill="#ffffff" stroke="#0b4a52" stroke-width="4" />
  <circle cx="120" cy="120" r="80" class="s" />
  <!-- gear -->
  <g transform="translate(120,120)">
    <path d="M-72 0 L-60 12 L-36 6 L-24 24 L-6 18 L0 36 L18 36 L24 18 L42 18 L48 6 L66 12 L72 0 L66 -12 L48 -6 L42 -18 L24 -18 L18 -36 L0 -36 L-6 -18 L-24 -24 L-36 -6 L-60 -12 Z" fill="#24183a" />
    <!-- three bars -->
    <rect x="-36" y="-44" width="22" height="88" rx="4" class="d" stroke="#c59a2f" stroke-width="2" />
    <rect x="-8" y="-44" width="22" height="88" rx="4" class="d" stroke="#c59a2f" stroke-width="2" />
    <rect x="20" y="-44" width="22" height="88" rx="4" class="d" stroke="#c59a2f" stroke-width="2" />
    <!-- center dot -->
    <circle cx="0" cy="0" r="4" fill="#fff" />
  </g>
  <text x="120" y="30" text-anchor="middle" class="t" font-size="16">BANK OF SOUTH SUDAN</text>
  <text x="120" y="220" text-anchor="middle" class="t" font-size="28">BoSS</text>
</svg>
